<svg xmlns="http://www.w3.org/2000/svg" xmlns:xlink="http://www.w3.org/1999/xlink" version="1.1" id="Your_Icon" x="0px" y="0px" width="100px" height="100px" viewBox="0 0 100 100" enable-background="new 0 0 100 100" xml:space="preserve">
<path d="M46.752,18.655c0,9.399-7.619,17.018-17.018,17.018c-9.398,0-17.017-7.619-17.017-17.018  c0-9.398,7.619-17.017,17.017-17.017C39.133,1.638,46.752,9.257,46.752,18.655z M81.895,44.976H76.24V34.111h-7.278v10.865H36.63  c-0.061,0-0.118,0-0.178,0.004H22.165c-7.135,0-12.92,5.785-12.92,12.915v40.466h40.974V62.234h18.744v8.794  c-1.259,0.243-2.211,1.338-2.211,2.667c0,0.751,0.3,1.424,0.8,1.915c0.378,0.382,0.868,0.647,1.411,0.746  c0.17,0.03,0.339,0.044,0.504,0.044h6.049c0.248,0,0.5-0.034,0.726-0.1c1.143-0.317,1.98-1.364,1.98-2.605  c0-1.247-0.838-2.294-1.98-2.61v-8.851h5.654c3.809,0,6.896-3.083,6.896-6.892v-3.47C88.791,48.064,85.703,44.976,81.895,44.976z   M83.197,21.243c0,0.322-0.062,0.636-0.175,0.924c-0.035,0.114-0.087,0.218-0.14,0.323c-0.444,0.81-1.308,1.368-2.302,1.368  c-0.479,0-0.924-0.13-1.308-0.349c-0.522-0.305-0.924-0.776-1.134-1.343c-0.112-0.288-0.174-0.602-0.174-0.924  c0-0.985-0.819-1.378-2.284-1.378h-7.175c0,0-0.088,0-0.263,0.018c-1.203,0.07-6.293,0.763-11.054,4.028  c-6.992,4.795-6.992,12.642-6.992,12.642h3.635c0,0,1.174-8.343,7.384-8.343c1.448,0,3.017,0,3.017,0  c4.01,0,3.705,4.499,3.705,4.499h8.248c1.308,0,1.447-1.281,1.447-1.281c0-1.622,1.324-2.938,2.946-2.938  c1.482,0,2.713,1.098,2.912,2.529h7.262v-9.773H83.197z"/>
</svg>