<svg xmlns="http://www.w3.org/2000/svg" xmlns:xlink="http://www.w3.org/1999/xlink" version="1.0" x="0px" y="0px" width="100px" height="100px" viewBox="0 0 100 100" overflow="" enable-background="new 0 0 100 100" xml:space="preserve">
    <path d="M47.289,28.053c0-1.649-0.382-3.208-1.047-4.616h0.013L40.119,8.264c-1.326-4.521-5.501-7.819-10.45-7.811 c-4.944,0.008-9.109,3.32-10.416,7.844l-6.082,15.194l0.008,0.004c-0.661,1.408-1.034,2.967-1.038,4.62l0.075,43.474 c0.008,3.242,2.642,5.867,5.885,5.863l23.397-0.037c3.249-0.008,5.867-2.643,5.867-5.888L47.289,28.053z M29.71,15.252 c-2.229,0-4.038-1.804-4.042-4.035c-0.005-2.231,1.799-4.034,4.03-4.038c2.231-0.008,4.038,1.798,4.042,4.03 C33.745,13.441,31.942,15.248,29.71,15.252z"/>
    <path d="M83.791,33.385c-3.663-3.319-8.971-3.677-12.988-1.213L56.078,39.31v0.013c-0.992,0.412-1.9,1.026-2.757,1.733l0.062,36.178 c0,3.241-2.619,5.876-5.866,5.884l-23.447,0.029l16.648,15.106c2.405,2.181,6.115,1.994,8.296-0.403l29.218-32.194 c1.112-1.222,1.878-2.63,2.333-4.118l0.012,0.005l5.677-15.344C88.319,41.961,87.452,36.709,83.791,33.385z M79.561,44.079 c-1.5,1.65-4.051,1.774-5.705,0.274c-1.648-1.5-1.775-4.05-0.274-5.7c1.501-1.654,4.048-1.774,5.699-0.278 C80.937,39.875,81.057,42.426,79.561,44.079z"/>
</svg>