<svg xmlns="http://www.w3.org/2000/svg" xmlns:xlink="http://www.w3.org/1999/xlink" version="1.1" id="Layer_1" x="0px" y="0px" width="90px" height="90px" viewBox="0 0 90 90" enable-background="new 0 0 90 90" xml:space="preserve">
<path d="M78.875,12.75c0-2.201-9.636-4.067-23.016-4.736C55.343,5.212,53.272,0,45,0c-8.274,0-10.361,5.214-10.887,8.016  c-13.366,0.669-22.988,2.535-22.988,4.734c0,2.637,13.823,4.794,31.351,4.984L21,90h48.25L47.524,17.734  C65.052,17.544,78.875,15.387,78.875,12.75z M36.702,54.243l2.833-12.686c0.151-0.677,0.822-1.104,1.5-0.952  c0.677,0.15,1.103,0.822,0.952,1.499L39.153,54.79c-0.151,0.678-0.822,1.104-1.499,0.953C36.977,55.592,36.55,54.92,36.702,54.243z   M47.778,57.272l-2.912,13.04c-0.009,0.04-0.019,0.077-0.028,0.113c-0.007,0.055-0.017,0.108-0.029,0.164l-3.272,14.658  c-0.24,1.074-1.305,1.751-2.38,1.511s-1.75-1.306-1.511-2.38l2.832-12.682l-0.517-0.115l-2.832,12.682  c-0.24,1.074-1.305,1.75-2.38,1.511c-1.074-0.24-1.75-1.306-1.511-2.38l3.273-14.657c0.012-0.054,0.027-0.107,0.043-0.159  c0.006-0.039,0.014-0.077,0.023-0.116l2.912-13.04c0.277-1.243,1.511-2.026,2.754-1.748l3.786,0.845  C47.272,54.796,48.056,56.029,47.778,57.272z M52.724,43.216c0.677,0.151,1.104,0.822,0.953,1.499L50.844,57.4  c-0.151,0.678-0.823,1.104-1.5,0.953c-0.677-0.151-1.103-0.822-0.952-1.501l2.833-12.686C51.375,43.491,52.047,43.064,52.724,43.216  z M49.287,50.378c-0.507,2.273-2.762,3.704-5.035,3.197c-2.272-0.509-3.703-2.763-3.196-5.034c0.507-2.272,2.761-3.704,5.034-3.196  C48.363,45.852,49.794,48.105,49.287,50.378z"/>
</svg>