<svg xmlns="http://www.w3.org/2000/svg" xmlns:xlink="http://www.w3.org/1999/xlink" version="1.1" x="0px" y="0px" width="100px" height="100px" viewBox="0 0 100 100" enable-background="new 0 0 100 100" xml:space="preserve">
<g id="Captions">
</g>
<g id="_x31__CD">
</g>
<g id="_x32__HDD">
</g>
<g id="_x33__HDD">
</g>
<g id="_x34__HDD">
</g>
<g id="_x35__HDD">
</g>
<g id="Layer_7">
	<path d="M49.743,29.876c-7.05,0-12.766,5.716-12.766,12.767c0,7.05,5.716,12.766,12.766,12.766c7.051,0,12.767-5.716,12.767-12.766   C62.51,35.592,56.794,29.876,49.743,29.876z M49.894,51.953c-5.143,0-9.312-4.168-9.312-9.311s4.169-9.312,9.312-9.312   s9.312,4.169,9.312,9.312S55.036,51.953,49.894,51.953z"/>
	<circle cx="49.894" cy="42.643" r="3.154"/>
	<g>
		<path d="M79.297,6H20.703C19.21,6,18,7.211,18,8.704v82.592C18,92.789,19.21,94,20.703,94h58.594C80.79,94,82,92.789,82,91.296    V8.704C82,7.211,80.79,6,79.297,6z M23.125,9.653c1.44,0,2.608,1.167,2.608,2.608c0,1.44-1.168,2.608-2.608,2.608    s-2.608-1.168-2.608-2.608C20.517,10.82,21.685,9.653,23.125,9.653z M23.011,91.163c-1.44,0-2.608-1.167-2.608-2.607    c0-1.441,1.168-2.609,2.608-2.609s2.608,1.168,2.608,2.609C25.619,89.996,24.451,91.163,23.011,91.163z M52.577,74.382    c-0.021,0.032-1.42,2.14-1.612,2.419c-0.251,0.365-0.488,0.717-0.714,1.052c-2.009,2.984-3.596,5.342-7.88,5.342    c-5.051,0-9.16-4.109-9.16-9.16c0.001-3.354,1.602-5.131,3.655-6.575C27.87,62.807,21.714,53.43,21.714,42.603    c0-15.454,12.528-27.981,27.982-27.981s27.981,12.527,27.981,27.981c0,13.522-9.597,24.79-22.348,27.399L52.577,74.382z     M76.627,91.163c-1.44,0-2.608-1.167-2.608-2.607c0-1.441,1.168-2.609,2.608-2.609s2.608,1.168,2.608,2.609    C79.235,89.996,78.067,91.163,76.627,91.163z M76.627,14.87c-1.44,0-2.608-1.168-2.608-2.608c0-1.441,1.168-2.608,2.608-2.608    s2.608,1.167,2.608,2.608C79.235,13.702,78.067,14.87,76.627,14.87z"/>
		<path d="M43.958,66.654c-0.01,0.006-2.4,1.389-2.673,1.558l-0.828,0.509c-2.944,1.797-4.246,2.701-4.246,5.313    c0,3.396,2.764,6.16,6.16,6.16c2.688,0,3.479-1.176,5.392-4.017c0.231-0.344,0.473-0.703,0.73-1.078    c0.19-0.275,1.564-2.346,1.564-2.346l9.658-15.369L43.958,66.654z"/>
	</g>
</g>
</svg>