<?xml version="1.0" encoding="UTF-8" standalone="no"?>
<!DOCTYPE svg PUBLIC "-//W3C//DTD SVG 1.1//EN" "http://www.w3.org/Graphics/SVG/1.1/DTD/svg11.dtd">
<!--Generated by Intaglio, www.PurgatoryDesign.com-->
<svg version="1.1" viewBox="0,0,73,80" width="73" height="80" xmlns="http://www.w3.org/2000/svg" xmlns:xlink="http://www.w3.org/1999/xlink"><path fill-rule="evenodd" d="M72.3035,79.4085 C66.0355,79.4085,59.8985,79.4085,53.6535,79.4085 C53.6535,52.7655,53.6535,26.1865,53.6535,-0.515499 C59.8235,-0.515499,66.0255,-0.515499,72.3035,-0.515499 C72.3035,26.1005,72.3035,52.6875,72.3035,79.4085 Z"/><path fill-rule="evenodd" d="M48.2125,79.4716 C44.7805,79.4716,41.4285,79.4716,38.0745,79.4698 C35.6855,79.4679,33.2955,79.4178,30.9095,79.4825 C29.8255,79.5126,29.4715,79.2384,29.4785,78.2138 C29.5215,71.5249,29.4935,64.836,29.4935,58.1462 C29.4945,49.5647,29.5015,40.9832,29.5055,32.3999 C29.5055,31.9636,29.5055,31.5264,29.5055,31 C35.7795,31,41.9455,31,48.2125,31 C48.2125,47.0801,48.2125,63.1756,48.2125,79.4716 Z"/><path fill-rule="evenodd" d="M-0.472504,39.3045 C1.58649,41.3695,3.39151,43.1805,5.22949,45.0245 C16.3055,33.9195,27.4425,22.7545,38.6615,11.5055 C40.5875,13.4995,42.3255,15.2985,44.0635,17.0985 C44.1595,17.0405,44.2545,16.9845,44.3465,16.9255 C44.3465,11.3485,44.3465,5.7715,44.3465,0.0955009 C38.7685,0.0955009,33.1905,0.0955009,27.3345,0.0955009 C29.4145,2.0875,31.3095,3.9065,33.1885,5.7045 C21.8115,17.0635,10.6455,28.2085,-0.472504,39.3045 Z"/><path fill-rule="evenodd" d="M24.0425,79.4045 C17.8045,79.4045,11.6715,79.4045,5.4335,79.4045 C5.4335,70.5525,5.4335,61.7405,5.4335,52.8305 C11.5895,52.8305,17.7575,52.8305,24.0425,52.8305 C24.0425,61.6275,24.0425,70.4435,24.0425,79.4045 Z"/></svg>
