<?xml version="1.0" encoding="UTF-8" standalone="no"?>
<!DOCTYPE svg PUBLIC "-//W3C//DTD SVG 1.1//EN" "http://www.w3.org/Graphics/SVG/1.1/DTD/svg11.dtd">
<!--Generated by Intaglio, www.PurgatoryDesign.com-->
<svg version="1.1" viewBox="0,0,100,100" width="100" height="100" xmlns="http://www.w3.org/2000/svg" xmlns:xlink="http://www.w3.org/1999/xlink"><path d="M50,100 C22.43,100,0,77.57,0,50 C0,22.43,22.43,0,50,0 C77.57,0,100,22.43,100,50 C100,77.57,77.57,100,50,100 Z M50,9.235 C27.522,9.235,9.235,27.522,9.235,50 C9.235,72.478,27.522,90.765,50,90.765 C72.478,90.765,90.765,72.478,90.765,50 C90.765,27.522,72.478,9.235,50,9.235 Z"/><path d="M74.632,44.869 L55.13,44.869 L44.87,44.869 L25.368,44.869 C22.534,44.869,20.238,47.166,20.238,49.999 C20.238,52.833,22.535,55.129,25.368,55.129 L44.87,55.129 L55.13,55.13 L74.631,55.13 C77.465,55.13,79.761,52.833,79.761,50 C79.762,47.166,77.465,44.869,74.632,44.869 Z"/></svg>
