<svg xmlns="http://www.w3.org/2000/svg" xmlns:xlink="http://www.w3.org/1999/xlink" version="1.1" id="Layer_2" x="0px" y="0px" width="100px" height="100px" viewBox="0 0 100 100" enable-background="new 0 0 100 100" xml:space="preserve">
<path d="M79.23,32.522c0,0-1.063,16.284-18.938,18.761c0,0-7.079-3.54-12.389-6.018c0,0-9.558-5.132-9.558-10.442  c0,0,1.592-9.204,10.973-9.558c0,0,10.974-2.125,28.85,6.902c0,0-12.213,5.31-35.221,3.54c0,0-3.54,0-0.354,1.947  C42.593,37.655,71.62,50.929,79.23,32.522z"/>
<path d="M50.026,54.469l2.832-5.31c0,0,13.628,3.718,13.628,14.514c0,0,2.832,11.682-9.38,12.035l-1.947,0.531l-7.434,18.938  c0,0-4.956-3.895-3.894-8.85l2.301-8.142c0,0,0.885-2.479,0.177-5.133c0,0-0.708-6.726,0-8.318l3.363,0.531  c0,0,2.301-0.354,0.177-1.239l-4.071-0.885c0,0-3.363,2.302-4.602-0.885c0,0-4.601-2.302-5.84-7.965l1.77-0.177l-2.655-6.018  l1.062-0.708l-15.752-34.69c0,0-2.655-4.955-0.885-10.442l20,43.539l1.593-0.354l4.248,9.911l12.566,1.771l0.177-1.063  L50.026,54.469z"/>
<path d="M64.894,55.353c0,0,2.832,4.071,2.655,7.257l9.734-6.194c0,0,6.017-3.009,4.07-11.151  C81.354,45.264,69.141,51.989,64.894,55.353z"/>
<path d="M64.54,41.901c0,0-2.831-3.008-0.177-5.132C64.363,36.769,68.08,38.715,64.54,41.901z"/>
<path d="M71.797,40.486c0,0-3.718-2.124-1.594-4.779C70.203,35.707,74.629,35.884,71.797,40.486z"/>
<path d="M56.044,77.301c0,0,4.779-0.886,6.195-1.416c0,0,0.529,12.036-0.886,15.93c0,0-6.194-1.592-6.371-6.194  C54.982,85.62,54.805,81.371,56.044,77.301z"/>
</svg>