<svg xmlns="http://www.w3.org/2000/svg" xmlns:xlink="http://www.w3.org/1999/xlink" version="1.1" id="Your_Icon" x="0px" y="0px" width="100px" height="100px" viewBox="0 0 100 100" enable-background="new 0 0 100 100" xml:space="preserve">
<g>
	<g>
		<g>
			<g>
				<g>
					<circle cx="76.833" cy="10.551" r="7.48"/>
				</g>
				<g>
					<path d="M76.833,10.551"/>
				</g>
			</g>
		</g>
	</g>
	<path d="M99.474,50.957l-6.918-27.891c-0.357-1.439-1.562-2.436-2.949-2.611c-0.148-0.02-0.334-0.029-0.538-0.031   c-0.013,0-0.024-0.001-0.036-0.001c-0.023,0-0.038-0.003-0.062-0.003h-7.963l1.852,27.267H70.806l1.853-27.267h-8.651   c0.101,0,0.189,0.013,0.281,0.021c-1.482,0.089-2.802,1.108-3.178,2.625l-6.918,27.891c-0.464,1.866,0.677,3.756,2.544,4.221   c1.868,0.462,3.758-0.676,4.22-2.544l5.726-23.081v12.155c0,0.062,0.015,0.119,0.018,0.18v52.999c0,6.431,9.372,6.244,9.372,0   V58.94h1.615v35.946c0,6.244,9.423,6.431,9.423,0V30.058l5.6,22.576c0.464,1.868,2.353,3.006,4.222,2.544   C98.798,54.713,99.937,52.823,99.474,50.957z"/>
	<g>
		<polygon points="82.13,24.631 76.836,20.424 76.831,20.426 71.537,24.631 71.969,25.176 76.776,21.354 81.696,25.176   "/>
	</g>
	<g>
		<polygon points="76.838,44.497 79.807,41.116 77.49,24.347 78.977,22.678 76.838,20.893 76.838,20.883 76.833,20.89     76.828,20.883 76.828,20.893 74.689,22.678 76.175,24.347 73.858,41.116 76.828,44.497 76.833,44.502   "/>
	</g>
	<g>
		<path d="M96.973,58.157c0,0.358-0.291,0.649-0.649,0.649l0,0c-0.358,0-0.649-0.291-0.649-0.649v-3.461    c0-0.357,0.291-0.647,0.649-0.647l0,0c0.358,0,0.649,0.29,0.649,0.647V58.157z"/>
	</g>
	<g>
		<path d="M100,78.057c0,0.638-0.516,1.153-1.153,1.153H93.8c-0.639,0-1.154-0.516-1.154-1.153V59.454    c0-0.637,0.516-1.152,1.154-1.152h5.047c0.638,0,1.153,0.516,1.153,1.152V78.057z"/>
	</g>
	<path d="M8.916,44.911"/>
	<path d="M29.686,50.204"/>
	<g>
		<path d="M17.071,54.206c0,0.479-0.392,0.871-0.871,0.871H5.588c-0.479,0-0.871-0.392-0.871-0.871V40.813    c0-0.479,0.392-0.871,0.871-0.871H16.2c0.479,0,0.871,0.392,0.871,0.871V54.206z"/>
	</g>
	<path d="M35.955,7.115c-0.11-3.792-1.223-6.755-7.474-6.755c-6.695,0-7.483,3.347-7.483,7.478h18.129V7.115H35.955z M21.243,8.676   c-0.155,0.6-0.246,1.226-0.246,1.875c0,4.13,3.352,7.476,7.483,7.476s7.484-3.345,7.484-7.476c0-0.649-0.091-1.274-0.246-1.875   H21.243z"/>
	<path d="M50.71,50.952l-6.909-27.886c-0.355-1.447-1.557-2.43-2.952-2.612c-0.146-0.021-0.313-0.028-0.505-0.035h-0.002   c-0.008,0-0.015,0-0.023,0v0h-8.352l-3.284,9.931l-3.237-9.931h-9.207c-0.203,0.008-0.378,0.014-0.531,0.037   c-1.394,0.182-2.54,1.536-3.342,2.368l-6.302,7.44c0,0-0.696,0.762-1.477,1.743c-0.128,0.162-0.226,0.323-0.299,0.483l-0.007-0.002   l-4,10.261c-0.778,1.87,0.112,3.885,1.915,4.573c1.781,0.688,3.818-0.208,4.492-2.009l3.775-9.676   c0.136-0.229,0.274-0.384,0.374-0.479l7.366-7.094v66.819c0,6.437,9.417,6.248,9.417,0V58.938h1.622v35.944   c0,6.248,9.369,6.437,9.369,0V41.891c0-0.059,0.015-0.123,0.015-0.182V31.16l5.327,21.48c0.473,1.861,2.343,3.003,4.218,2.538   C50.042,54.712,51.184,52.821,50.71,50.952z M36.292,31.368h-4.556V29.47h4.556V31.368z"/>
</g>
</svg>