<svg xmlns="http://www.w3.org/2000/svg" xmlns:xlink="http://www.w3.org/1999/xlink" version="1.1" id="Capa_1" x="0px" y="0px" width="100px" height="100px" viewBox="0 0 100 100" enable-background="new 0 0 100 100" xml:space="preserve">
<g id="Capa_6">
	<path d="M57.134,42.331v4.197H100v-4.197H57.134z M65.289,90.695h26.547V53.13H65.289V90.695z M59.863,97.309h37.402V47.407H59.863   V97.309z M64.375,52.217h28.366v39.385H64.375V52.217z"/>
	<path d="M88.605,27.174h-2.662c-0.443,0-0.809,0.359-0.809,0.803v2.054c0,0.249,0.116,0.501,0.284,0.723v10.973h3.71v-9.313   c0.159-0.071,0.273-0.222,0.273-0.471v-3.966C89.404,27.533,89.05,27.174,88.605,27.174z M87.273,26.761   c0.781,0,0.781-1.269,0.408-2.201c-0.371-0.923-0.408-1.819-0.408-1.819s-0.035,0.896-0.407,1.819   C86.484,25.492,86.484,26.761,87.273,26.761z"/>
	<g>
		<path d="M47.667,20.638c4.646-2.867,6.079-8.954,3.204-13.608c-2.884-4.628-8.967-6.07-13.613-3.19    c-4.65,2.88-6.079,8.972-3.204,13.613C36.926,22.093,43.022,23.531,47.667,20.638z"/>
		<path d="M66.197,38.352l1.457-0.143l-0.426-6.513l-1.985-0.01c0.28-1.804,0.317-4.566-1.228-7.25    c-0.382-0.661-0.781-1.242-1.177-1.784l-0.812,2.01l0.273-2.702c-2.104-2.609-4.104-3.79-4.4-5.316c0,0,0.183,2.334,0.838,4.766    l1.863,1.127l-1.623-0.319c0.227,0.714,0.487,1.419,0.813,2.05c1.167,2.262,1.049,5.126,2.682,7.404l-12.574-0.061l-13.071-7.916    c-0.519-0.399-1.078-0.754-1.69-1.025l-0.249-0.15l-0.036,0.058c-0.413-0.169-0.834-0.324-1.287-0.426    c-4.513-0.998-8.99,1.841-9.975,6.354l-5.768,26.047C17.22,57.287,18.028,60,19.756,62h-2.771L8.972,25.688    c-0.55-2.444-2.977-4.016-5.417-3.475c-2.458,0.546-3.993,2.961-3.443,5.406l-0.014-0.017l8.808,39.794    c0.257,1.17,0.976,2.277,1.913,2.918L6.159,98h4.828l2.01-13H40v13h5V70.41c0-0.104,0.261-0.227,0.445-0.355l4.726,24.652    l7.933-1.206L54.221,60.17c-0.359-2.369-2.289-4.188-4.681-4.41l-14.544-1.404l4.297-19.39l7.378,4.463    c0.657,0.399,1.41,0.612,2.183,0.612c0.066,0,0.133,0,0.195-0.004l16.445-1.616l0.527,2.024c0.125,0.484,0.352,0.839,0.528,0.786    c0.173-0.054,0.218-0.479,0.099-0.963L66.197,38.352z M40,81H13.733l1.58-10H40V81z"/>
	</g>
	<path d="M82.705,36.949h-0.02c-0.435,0-0.744-0.315-0.852-0.71c0.055-0.049,0.15-0.067,0.15-0.146c0-0.129-0.115-0.2-0.23-0.231   v-0.084c0.115-0.027,0.23-0.098,0.23-0.222s-0.115-0.191-0.23-0.222l0.01-0.275H78.87v0.262c-0.124,0.026-0.239,0.102-0.239,0.235   c0,0.129,0.115,0.204,0.239,0.231v0.071c-0.124,0.027-0.239,0.102-0.239,0.235c0,0.084,0.098,0.106,0.159,0.155   c-0.106,0.39-0.435,0.701-0.869,0.701h-0.019c-0.516,0-0.94,0.426-0.94,0.945V40.6c0,0.515,0.427,0.941,0.94,0.941h4.802   c0.522,0,0.948-0.426,0.948-0.941v-2.707C83.654,37.375,83.229,36.949,82.705,36.949z M82.35,40.232h-4.091V38.12h4.091V40.232z"/>
</g>
</svg>