<svg xmlns="http://www.w3.org/2000/svg" xmlns:xlink="http://www.w3.org/1999/xlink" version="1.1" x="0px" y="0px" width="100px" height="100px" viewBox="0 0 100 100" enable-background="new 0 0 100 100" xml:space="preserve">
<g id="Captions">
</g>
<g id="Your_Icon">
	<path d="M0,87.852c0,0,1.271-0.985,3.54-2.651c1.153-0.813,2.661-1.72,4.384-2.773c1.805-0.923,3.791-2.075,6.197-2.967   c1.164-0.517,2.438-0.942,3.776-1.354c1.316-0.472,2.754-0.752,4.222-1.078c1.467-0.363,3.032-0.475,4.611-0.72   c1.596-0.086,3.243-0.238,4.904-0.146c3.336,0.047,6.777,0.463,10.115,1.244c3.348,0.757,6.639,1.76,9.821,2.844   c3.167,1.12,6.251,2.293,9.289,3.312c3.042,0.992,5.998,1.971,8.928,2.472c2.925,0.516,5.772,0.72,8.482,0.557   c2.694-0.232,5.231-0.759,7.51-1.499c2.266-0.757,4.3-1.631,6.043-2.526c1.773-0.85,3.189-1.794,4.448-2.468   c2.371-1.544,3.729-2.424,3.729-2.424s-1.095,1.119-3.111,3.055c-1.113,0.863-2.343,2.061-4.033,3.157   c-1.633,1.158-3.604,2.357-5.967,3.4c-2.349,1.059-5.105,1.942-8.17,2.396c-3.061,0.417-6.384,0.445-9.691-0.03   c-3.317-0.456-6.606-1.279-9.786-2.312c-3.193-1.019-6.326-2.149-9.438-3.208c-3.088-1.105-6.17-2.089-9.246-2.832   c-3.077-0.737-6.127-1.327-9.121-1.473c-1.497-0.163-2.968-0.046-4.417-0.1c-1.435,0.128-2.872,0.114-4.232,0.354   c-1.371,0.194-2.709,0.378-3.979,0.692c-1.287,0.257-2.527,0.53-3.682,0.911c-2.364,0.629-4.433,1.476-6.324,2.135   c-1.786,0.814-3.423,1.435-4.719,2.062C1.5,87.153,0,87.852,0,87.852z"/>
	<path id="path3136_1_" d="M47.447,44.925v-7.862h14.113v7.862H47.447z"/>
	<path id="path3138_1_" d="M53.719,35.491v-9.418h1.57v9.418H53.719z"/>
	<path id="path3140_1_" d="M80.121,51.967L69.271,18.311l-15.552,6.223v-1.57l20.4-10.202l19.347,39.208H80.121"/>
	<path d="M77.236,56.414l-0.533,2.401H44.171l-0.534-2.401H37.74V43.8H28.56V27.096h-5.19V43.8h-3.193h-1.599v-4.001h-2.592v-6.265   h-2.599v6.265h-2.394V43.8H8.397v10.266h9.384v2.349H3.01l6.776,21.363c1.306-0.684,2.726-1.396,4.335-1.993   c1.164-0.517,2.438-0.941,3.776-1.353c1.316-0.473,2.754-0.753,4.222-1.079c1.467-0.363,3.032-0.475,4.611-0.72   c1.596-0.085,3.243-0.238,4.904-0.146c3.336,0.047,6.777,0.462,10.115,1.244c3.348,0.757,6.639,1.76,9.821,2.843   c3.167,1.121,6.251,2.294,9.289,3.312c3.042,0.991,6.021,1.879,8.928,2.472c3.781,0.768,8.523,1.353,10.467-1.669l0.551-1.014   c0.252-0.38,0.496-0.781,0.729-1.213c0.195-0.358,0.36-0.711,0.504-1.061l11.39-20.988H77.236z M22.968,47.977H11.393v-2.264   h11.575V47.977z M30.355,56.33h-4.192v-4.003h4.192V56.33z M30.355,50.064h-4.192v-4.002h4.192V50.064z M35.945,56.33h-2.594   v-4.003h2.594V56.33z M35.945,50.064h-2.594v-4.002h2.594V50.064z"/>
</g>
</svg>