<?xml version="1.0" encoding="UTF-8" standalone="no"?>
<!DOCTYPE svg PUBLIC "-//W3C//DTD SVG 1.1//EN" "http://www.w3.org/Graphics/SVG/1.1/DTD/svg11.dtd">
<!--Generated by Intaglio, www.PurgatoryDesign.com-->
<svg version="1.1" viewBox="29,31,70,84" width="70" height="84" xmlns="http://www.w3.org/2000/svg" xmlns:xlink="http://www.w3.org/1999/xlink"><path d="M39.3856,34.8992 C35.8503,38.3336,34.0321,42.9801,34.0321,47.929 C34.0321,52.7775,35.8503,57.424,39.3856,60.9594 L36.3553,64.0907 C31.8098,59.5452,29.5881,53.5861,29.4866,47.6265 C29.5876,42.071,31.5068,36.3134,36.2538,31.6669 L39.3856,34.8992 Z M88.072,114.09 C87.6674,114.291,87.2639,114.291,86.7588,114.291 C85.3442,114.291,83.9296,113.483,83.4245,111.968 L82.3139,109.14 L63.9306,109.14 L45.1427,109.14 L44.0321,111.968 C43.527,113.483,42.1124,114.291,40.6982,114.291 C40.1932,114.291,39.7891,114.291,39.3851,114.09 C37.4659,113.383,36.5568,111.261,37.2639,109.343 L59.6876,51.6664 L63.1219,49.3432 L64.4356,49.3432 L67.7689,51.6664 L90.1927,109.343 C90.9003,111.261,89.9907,113.383,88.072,114.09 Z M50.0922,40.5553 C47.9715,42.5755,46.8604,45.5048,46.8604,48.1311 C46.8604,50.7573,47.8705,53.3831,49.7897,55.3028 L46.9614,58.1311 C44.2341,55.4038,42.5169,51.5654,42.5169,47.8286 C42.5169,44.2932,43.9311,40.6568,47.1629,37.5255 L50.0922,40.5553 Z M60.2947,105.504 L50.3957,95.7063 L46.5573,105.504 L60.2947,105.504 Z M51.8099,91.9689 L55.1432,95.2013 L61.4058,89.0396 L55.3452,82.979 L51.8099,91.9689 Z M57.0619,79.6457 L63.9311,86.4134 L70.7998,79.6457 L57.0619,79.6457 Z M70.1932,97.8275 L63.9311,91.5649 L57.6684,97.8275 L63.9311,104.09 L70.1932,97.8275 Z M58.072,76.0094 L69.3851,76.0094 L63.7285,61.3629 L58.072,76.0094 Z M59.0821,44.5957 C59.0821,42.0705,61.2033,39.9492,63.7285,39.9492 C66.3548,39.9492,68.375,42.0705,68.375,44.5957 C68.375,47.121,66.3548,49.2422,63.7285,49.2422 C61.2033,49.2422,59.0821,47.121,59.0821,44.5957 Z M72.2134,83.2821 L66.4563,89.0396 L72.7184,95.2013 L75.7487,92.272 L72.2134,83.2821 Z M80.8997,105.504 L77.1634,95.9083 L67.5674,105.504 L80.8997,105.504 Z M77.8705,55.5048 C79.9912,53.4846,81.1018,50.5553,81.1018,47.828 C81.1018,45.4038,80.0917,42.6765,78.173,40.6563 L81.0013,37.828 C83.627,40.7573,85.4452,44.3937,85.4452,48.2321 C85.4452,51.7674,84.0316,55.4038,80.8998,58.4341 L77.8705,55.5048 Z M88.577,61.1614 C92.1124,57.727,93.9306,53.0806,93.8285,48.1316 C93.93,43.2831,92.1124,38.5356,88.577,35.0002 L91.6073,32.0709 C96.1528,36.5154,98.374,42.475,98.476,48.4341 C98.3745,53.9896,96.4558,59.7472,91.7083,64.2927 L88.577,61.1614 Z"/></svg>
