<?xml version="1.0" encoding="UTF-8" standalone="no"?>
<!DOCTYPE svg PUBLIC "-//W3C//DTD SVG 1.1//EN" "http://www.w3.org/Graphics/SVG/1.1/DTD/svg11.dtd">
<!--Generated by Intaglio, www.PurgatoryDesign.com-->
<svg version="1.1" viewBox="0,0,74,80" width="74" height="80" xmlns="http://www.w3.org/2000/svg" xmlns:xlink="http://www.w3.org/1999/xlink"><path fill-rule="evenodd" d="M17.8035,79.9085 C11.5355,79.9085,5.3985,79.9085,-0.846497,79.9085 C-0.846497,53.2655,-0.846497,26.6865,-0.846497,-0.0155029 C5.3235,-0.0155029,11.5255,-0.0155029,17.8035,-0.0155029 C17.8035,26.6005,17.8035,53.1875,17.8035,79.9085 Z"/><path fill-rule="evenodd" d="M41.7125,79.9705 C38.2805,79.9705,34.9285,79.9705,31.5745,79.9685 C29.1855,79.9665,26.7955,79.9115,24.4095,79.9825 C23.3255,80.0155,22.9715,79.7145,22.9785,78.5895 C23.0215,71.2455,22.9935,63.9015,22.9935,56.5565 C22.9945,47.1345,23.0015,37.7125,23.0055,28.2885 C23.0055,27.8095,23.0055,27.3295,23.0055,26.7515 C29.2795,26.7515,35.4455,26.7515,41.7125,26.7515 C41.7125,44.4065,41.7125,62.0785,41.7125,79.9705 Z"/><path fill-rule="evenodd" d="M29.0275,5.81551 C31.0865,3.7505,32.8915,1.9395,34.7295,0.0954971 C45.8055,11.2005,56.9425,22.3655,68.1615,33.6145 C70.0875,31.6205,71.8255,29.8215,73.5635,28.0215 C73.6595,28.0795,73.7545,28.1355,73.8465,28.1945 C73.8465,33.7715,73.8465,39.3485,73.8465,45.0245 C68.2685,45.0245,62.6905,45.0245,56.8345,45.0245 C58.9145,43.0325,60.8095,41.2135,62.6885,39.4155 C51.3115,28.0565,40.1455,16.9115,29.0275,5.81551 Z"/><path fill-rule="evenodd" d="M65.5425,79.9045 C59.3045,79.9045,53.1715,79.9045,46.9335,79.9045 C46.9335,71.0525,46.9335,62.2405,46.9335,53.3305 C53.0895,53.3305,59.2575,53.3305,65.5425,53.3305 C65.5425,62.1275,65.5425,70.9435,65.5425,79.9045 Z"/></svg>
