<svg xmlns="http://www.w3.org/2000/svg" xmlns:xlink="http://www.w3.org/1999/xlink" version="1.1" id="Layer_1" x="0px" y="0px" width="79.3650793651px" height="100px" viewBox="0 0 100 126.029" enable-background="new 0 0 100 126.029" xml:space="preserve">
<g>
	<path d="M96.61,0H3.391C1.518,0,0,1.519,0,3.391v119.248c0,1.871,1.518,3.391,3.391,3.391H96.61c1.872,0,3.39-1.52,3.39-3.391   V3.391C100,1.519,98.482,0,96.61,0z M96.95,111.326c0,1.758-1.426,3.184-3.185,3.184H6.234c-1.759,0-3.184-1.426-3.184-3.184V6.135   c0-1.758,1.425-3.183,3.184-3.183h87.531c1.759,0,3.185,1.425,3.185,3.183V111.326z"/>
	<path d="M49.999,69.597c14.997,0,27.155-12.156,27.155-27.153S64.996,15.289,49.999,15.289S22.845,27.446,22.845,42.443   S35.002,69.597,49.999,69.597z M49.835,16.76v25.517h25.846c0,0.055,0.003,0.109,0.003,0.164c0,14.186-11.499,25.686-25.685,25.686   c-14.185,0-25.684-11.5-25.684-25.686C24.315,28.311,35.726,16.849,49.835,16.76z"/>
	<rect x="13.552" y="83.272" width="72.895" height="2.713"/>
	<rect x="13.552" y="92.881" width="72.895" height="2.713"/>
	<rect x="13.552" y="102.374" width="72.895" height="2.713"/>
</g>
</svg>