<?xml version="1.0" encoding="UTF-8" standalone="no"?>
<!DOCTYPE svg PUBLIC "-//W3C//DTD SVG 1.1//EN" "http://www.w3.org/Graphics/SVG/1.1/DTD/svg11.dtd">
<!--Generated by Intaglio, www.PurgatoryDesign.com-->
<svg version="1.1" viewBox="92,31,141,125" width="141" height="125" xmlns="http://www.w3.org/2000/svg" xmlns:xlink="http://www.w3.org/1999/xlink"><path fill="#010101" d="M180.859,73.068 C184.232,73.068,187.299,74,189.758,76 L192,76 C191.503,72,186.12,68.324,179.98,68.428 L178.461,68.76 C178.712,68.246,178.944,67.729,179.165,67.225 C179.241,67.19,179.433,67.164,179.433,67.164 L183,66.497 L183,61.728 L180.939,61.373 C180.953,61.165,180.918,60.949,180.918,60.75 C180.918,54.021,171.985,39.815,166.583,33.717 C165.021,31.951,163.562,31,159.922,31 C156.904,31,124.916,31,116.687,31 C93.25,31,94,45.542,94,45.542 L94,61 L123,61 L123,52.577 L123,47.417 L123,38.924 C123,37.631,123.881,37,125.173,37 L140.493,37 C141.786,37,143,37.631,143,38.923 L143,47.416 L143,52.576 L143,78.666 C143,80.042,142.542,82,141.167,82 L131.167,82 C129.792,82,128.459,80.459,128.459,79.084 C128.459,79.084,128.477,69.67,124.717,67.044 C123.142,65.943,122.885,64,122.842,63 L94,63 L94,67.422 L92,67.744 L92,72.511 L94,72.848 L94,87 L119.5,87 L166.498,87 C166.881,79,173.146,73.068,180.859,73.068 Z M161.383,57 L149.283,57 C148.021,57,147,55.561,147,54.3 L147,38.866 C147,37.605,148.021,37,149.283,37 L159.717,37 C160.979,37,162,37.813,162,39.074 L163.667,54.613 C163.667,55.874,162.645,57,161.383,57 Z M169.954,54.926 C169.863,54.94,169.775,54.946,169.687,54.946 C168.789,54.946,168.015,54.301,167.847,53.416 L165.193,39.476 C165,38.456,165.67,37.47,166.688,37.275 L167.557,37.11 C170.79,41.38,174.872,47.873,177.262,53.534 L170.043,54.908 L169.954,54.926 Z"/><path fill="#010101" d="M97.391,89 C98.534,94.148,103.119,98,108.611,98 C114.103,98,118.688,94.148,119.831,89 L97.391,89 Z"/><path fill="#010101" d="M180.5,75 C174.148,75,169,80.148,169,86.5 C169,92.852,174.148,98,180.5,98 C186.852,98,192,92.852,192,86.5 C192,80.148,186.852,75,180.5,75 Z M180.5,90.25 C178.43,90.25,176.75,88.57,176.75,86.5 C176.75,84.43,178.43,82.75,180.5,82.75 C182.57,82.75,184.25,84.43,184.25,86.5 C184.25,88.57,182.57,90.25,180.5,90.25 Z"/><g><path fill="none" stroke="#000" stroke-width="20" d="M194.391,89 C194.391,89,233,94,219,124 C210.142,142.982,174.899,138.326,150.963,132.617"/><path d="M158.57,110.766 C137.694,114.11,115.545,115.867,97.391,128 C117.747,130.533,132.712,145.232,149.049,155.77"/></g></svg>
