<svg xmlns="http://www.w3.org/2000/svg" xmlns:xlink="http://www.w3.org/1999/xlink" version="1.0" id="Layer_1" x="0px" y="0px" width="98px" height="100px" viewBox="0 0 98 100" enable-background="new 0 0 98 100" xml:space="preserve">
<g>
	<path d="M9.878,85.432c-1.771,0-3.438-0.449-4.896-1.233l0.823,7.524c0.404,3.691,3.826,6.633,7.651,6.633h71.09   c3.824,0,7.246-2.941,7.65-6.633l0.822-7.524c-1.459,0.784-3.126,1.233-4.895,1.233H9.878z"/>
	<path d="M88.124,46.654H61.795v9.709c0,7.057-5.74,12.795-12.795,12.795c-7.054,0-12.793-5.738-12.793-12.795v-9.709H9.878   c-3.825,0-6.925,3.1-6.925,6.923v21.466c0,2.438,1.263,4.577,3.166,5.811c0.032,0.021,0.065,0.041,0.096,0.059   c0.171,0.107,0.348,0.207,0.53,0.301c0.059,0.029,0.119,0.057,0.179,0.086c0.159,0.075,0.321,0.144,0.486,0.208   c0.075,0.029,0.149,0.056,0.225,0.083c0.158,0.055,0.319,0.101,0.481,0.143c0.083,0.022,0.164,0.045,0.247,0.063   c0.17,0.04,0.344,0.066,0.519,0.093c0.076,0.011,0.152,0.024,0.23,0.034c0.252,0.028,0.507,0.045,0.767,0.045h78.246   c0.258,0,0.515-0.016,0.765-0.045c0.08-0.01,0.156-0.023,0.233-0.034c0.173-0.027,0.346-0.053,0.516-0.093   c0.084-0.019,0.166-0.042,0.248-0.063c0.162-0.043,0.321-0.088,0.479-0.143c0.077-0.027,0.153-0.055,0.228-0.084   c0.165-0.063,0.325-0.132,0.482-0.206c0.062-0.029,0.122-0.058,0.182-0.088c0.181-0.093,0.356-0.192,0.527-0.3   c0.031-0.018,0.066-0.037,0.098-0.06c1.904-1.232,3.165-3.372,3.165-5.809V53.577C95.047,49.754,91.945,46.654,88.124,46.654z"/>
	<path d="M39.668,42.369v13.994c0,5.153,4.179,9.332,9.332,9.332c5.155,0.001,9.333-4.179,9.333-9.332V42.369   c-2.827,1.614-5.978,2.572-9.333,2.572C45.646,44.941,42.495,43.984,39.668,42.369z"/>
	<path d="M42.878,39.733c0.042,0.02,0.084,0.037,0.126,0.057c0.327,0.146,0.657,0.281,0.991,0.404   c0.046,0.018,0.094,0.036,0.141,0.053c0.73,0.262,1.476,0.467,2.239,0.611c0.1,0.02,0.201,0.036,0.303,0.053   c0.281,0.048,0.565,0.086,0.851,0.116c0.108,0.012,0.216,0.025,0.324,0.034c0.379,0.031,0.761,0.052,1.146,0.052   c0.386,0,0.768-0.021,1.147-0.052c0.109-0.009,0.216-0.022,0.324-0.034c0.286-0.03,0.57-0.068,0.852-0.116   c0.102-0.017,0.203-0.033,0.303-0.052c0.764-0.146,1.51-0.351,2.24-0.613c0.046-0.016,0.092-0.034,0.139-0.052   c0.336-0.123,0.666-0.258,0.992-0.404c0.042-0.02,0.084-0.037,0.127-0.057c1.121-0.512,2.192-1.153,3.205-1.902   c0.002-0.001,0.004-0.002,0.005-0.003l0,0c5.595-4.138,9.362-11.511,9.362-18.18c0-0.006-0.002-0.013-0.002-0.019   c-1.042,1.018-2.311,1.95-3.792,2.772C59.865,24.645,54.572,25.88,49,25.88s-10.864-1.235-14.9-3.478   c-1.481-0.822-2.75-1.755-3.795-2.772c0,0.006,0,0.013,0,0.019C30.304,27.525,35.56,36.39,42.878,39.733z"/>
	<ellipse cx="49" cy="12.031" rx="18.695" ry="10.387"/>
</g>
</svg>