<?xml version="1.0" encoding="UTF-8" standalone="no"?>
<!DOCTYPE svg PUBLIC "-//W3C//DTD SVG 1.1//EN" "http://www.w3.org/Graphics/SVG/1.1/DTD/svg11.dtd">
<!--Generated by Intaglio, www.PurgatoryDesign.com-->
<svg version="1.1" viewBox="16,2,88,91" width="88" height="91" xmlns="http://www.w3.org/2000/svg" xmlns:xlink="http://www.w3.org/1999/xlink"><path fill="none" stroke="#000" stroke-width="3" d="M39.665,36.4015 C38.044,30.1755,39.565,28.9485,41.036,28.9595 C41.376,28.9625,41.43,28.9565,41.725,29.0445 L41.729,28.9085 C41.729,28.9085,37.37,14.3595,47.857,7.9615 C47.857,7.9615,46.014,6.4685,46.156,4.3175 L46.156,4.3175 C46.156,4.3175,50.964,4.8635,55.571,4.8725 C57.665,4.8765,59.718,4.7705,61.258,4.4525 C61.874,4.3255,62.496,4.2745,63.115,4.2895 C67.443,4.3985,71.589,7.7715,72.318,11.0265 C72.318,11.0265,72.382,11.0215,72.498,11.0215 C73.866,11.0185,82.459,11.6765,78.335,28.9655 C78.335,28.9655,78.332,28.9885,78.325,29.0305 C78.524,28.9885,78.734,28.9605,78.944,28.9585 C80.419,28.9405,81.954,30.1575,80.328,36.4005 C79.03,41.3885,77.826,42.6725,76.933,42.6705 C76.635,42.6695,76.372,42.5255,76.151,42.3285 C75.525,46.2505,73.881,51.0265,69.811,54.4185 C59.758,62.1385,50.215,54.5715,50.215,54.5715 C46.047,51.2015,44.356,46.3965,43.708,42.4365 C43.511,42.5815,43.285,42.6765,43.036,42.6715 C42.147,42.6515,40.952,41.3475,39.665,36.4015 Z M90.63,65.7255 Z"/><path stroke="#000" d="M51.25,22.575 C53.4309,22.575,55.3313,23.7664,56.3438,25.5437 L63.5,25.5437 C64.5125,23.7664,66.4128,22.575,68.5938,22.575 C71.8295,22.575,74.4688,25.2146,74.4688,28.45 C74.4688,31.6856,71.8295,34.325,68.5938,34.325 C65.358,34.325,62.7188,31.6856,62.7188,28.45 C62.7188,27.9829,62.7687,27.5451,62.875,27.1062 L56.9688,27.1062 C57.075,27.5451,57.125,27.9829,57.125,28.45 C57.125,31.6856,54.486,34.325,51.25,34.325 C48.0144,34.325,45.375,31.6856,45.375,28.45 C45.375,25.2146,48.0144,22.575,51.25,22.575 Z M51.1875,24.1687 C48.8198,24.1687,46.9062,26.0823,46.9062,28.45 C46.9062,30.8177,48.8198,32.7312,51.1875,32.7312 C53.5552,32.7312,55.4688,30.8177,55.4688,28.45 C55.4688,26.0823,53.5552,24.1687,51.1875,24.1687 Z M68.6562,24.1687 C66.2885,24.1687,64.375,26.0823,64.375,28.45 C64.375,30.8177,66.2885,32.7312,68.6562,32.7312 C71.024,32.7312,72.9375,30.8177,72.9375,28.45 C72.9375,26.0823,71.024,24.1687,68.6562,24.1687 Z M59.9062,90.6062 Z"/><path stroke="#000" d="M45.4375,53.8437 C37.7684,57.824,28.1567,59.7771,23.3438,65.9062 C19.0767,71.4093,17.2884,76.7961,17.25,82.2187 C17.2481,82.406,17.2481,82.5938,17.25,82.7812 C17.2558,83.1553,17.2588,83.5318,17.2812,83.9062 C17.4288,86.438,15.654,90.6408,17.7812,91.1562 C31.5,91.3437,48.0094,91.6722,59.9062,91.6562 C64.3793,91.662,60.1996,86.6562,59.9062,86.6562 C59.6135,86.6562,59.275,86.4991,58.4688,85.4687 C50.1888,74.8911,47.81,65.5987,45.4375,53.8437 Z M56.2812,60.3437 C55.8675,60.3379,55.5176,60.7804,55.5938,61.1875 L56.6875,66.75 C56.751,67.0682,57.0506,67.3437,57.375,67.3437 L62.4375,67.3437 C62.7621,67.3437,63.0928,67.0682,63.1562,66.75 L64.25,61.1875 C64.3327,60.7804,63.9446,60.3374,63.5312,60.3437 Z M57.4375,68.75 C57.145,68.7753,56.9072,69.0265,56.8438,69.3125 L55.4688,75.2187 C56.8046,78.0432,58.2841,80.8037,59.9062,83.4687 C61.541,80.8163,63.0328,78.0496,64.375,75.2187 L63,69.3125 C62.9298,69.0073,62.6242,68.75,62.3125,68.75 L57.5312,68.75 Z"/><path fill-rule="evenodd" stroke="#010101" d="M69.9855,37.3791 L69.9476,37.3791 L69.9476,37.4171 L69.9096,37.4171 L69.9096,37.4171 L69.9096,37.4551 L69.9096,37.4551 L69.9096,37.4551 L69.8716,37.4551 L69.8716,37.4551 L69.8716,37.4931 L69.8336,37.4931 L69.8336,37.4931 L69.8336,37.531 L69.7577,37.531 L69.7197,37.531 L69.7197,37.4931 L69.7577,37.4551 L69.7577,37.4171 L69.7577,37.3791 L69.7957,37.3791 L69.7957,37.3791 L69.7957,37.3412 L69.8336,37.3412 L69.8336,37.3412 L69.8336,37.3032 L69.8336,37.3032 L69.8336,37.3032 L69.8716,37.2652 L69.9096,37.2272 L69.9096,37.2272 L69.9096,37.2272 L69.9096,37.1893 C69.9096,37.1893,69.9476,37.164,70.0235,37.1133 C70.0741,37.0374,70.2007,36.9488,70.4032,36.8475 C70.6058,36.7462,70.8209,36.6956,71.0488,36.6956 C71.3019,36.6956,71.5045,36.7336,71.6563,36.8095 C71.8336,36.8855,72.0234,36.9994,72.2259,37.1513 C72.4032,37.3032,72.5804,37.4931,72.7576,37.7209 C72.9348,37.9487,73.0613,38.1892,73.1373,38.4424 C73.2132,38.7208,73.2512,38.9993,73.2512,39.2778 C73.2512,39.5816,73.2132,39.86,73.1373,40.1132 C73.0613,40.3917,72.9221,40.6701,72.7196,40.9486 C72.5677,41.2271,72.3905,41.4549,72.188,41.6321 C71.9854,41.8093,71.7196,41.9865,71.3905,42.1637 C71.0614,42.3663,70.6817,42.5181,70.2513,42.6194 C69.821,42.7713,69.3527,42.8726,68.8463,42.9232 C68.3654,42.9738,67.8084,42.9738,67.1755,42.9232 C66.5173,42.9232,65.8338,42.8472,65.125,42.6954 C64.4162,42.5435,63.758,42.3663,63.1504,42.1637 C62.5428,41.9612,62.0112,41.7334,61.5555,41.4802 C61.1252,41.2271,60.7961,40.9992,60.5682,40.7967 C60.3151,40.5942,60.1632,40.4803,60.1126,40.4549 C60.0619,40.4296,59.986,40.4549,59.8847,40.5309 C59.8088,40.6068,59.6062,40.7714,59.2771,41.0245 C58.948,41.2777,58.5557,41.5055,58.1,41.7081 C57.6443,41.9106,57.1,42.1131,56.4671,42.3156 C55.8596,42.5181,55.1761,42.6827,54.4166,42.8093 C53.6571,42.9358,53.0243,43.0118,52.518,43.0371 C52.037,43.0624,51.6825,43.0498,51.4547,42.9991 C51.2269,42.9991,50.8725,42.9358,50.3915,42.8093 C49.8852,42.6827,49.4548,42.5435,49.1004,42.3916 C48.7713,42.2397,48.4928,42.0878,48.265,41.9359 C48.0371,41.7334,47.8346,41.5182,47.6574,41.2904 C47.4549,41.0372,47.303,40.7587,47.2017,40.4549 C47.1005,40.1512,47.0372,39.8347,47.0119,39.5056 C46.9866,39.2018,46.9992,38.9487,47.0498,38.7462 C47.1005,38.569,47.1764,38.3538,47.2777,38.1006 C47.4296,37.8475,47.5435,37.6829,47.6194,37.607 C47.7207,37.5057,47.7713,37.4424,47.7713,37.4171 C47.7713,37.3918,47.7966,37.3665,47.8473,37.3412 C47.8979,37.3158,48.0371,37.2399,48.265,37.1133 C48.4928,36.9867,48.746,36.9235,49.0244,36.9235 C49.3282,36.9235,49.5814,36.9614,49.7839,37.0374 L50.0877,37.1513 L50.0877,37.1893 L50.0877,37.1893 L50.1257,37.1893 L50.1257,37.2272 L50.1257,37.2272 L50.1636,37.2272 L50.1636,37.2272 L50.1636,37.2272 L50.2016,37.2652 L50.2396,37.3032 L50.2396,37.3032 L50.2396,37.3032 L50.2775,37.3032 L50.2775,37.3032 L50.2775,37.3412 L50.3155,37.3412 L50.3155,37.3791 L50.3155,37.4171 L50.2396,37.4171 L50.1257,37.3791 L50.0877,37.3791 L50.0497,37.3791 L50.0497,37.3412 L50.0117,37.3412 L50.0117,37.3412 L50.0117,37.3032 L49.8598,37.3032 C49.7839,37.2526,49.6447,37.2399,49.4421,37.2652 C49.2396,37.2905,49.0624,37.3538,48.9105,37.4551 C48.7839,37.5817,48.67,37.7335,48.5688,37.9108 C48.4675,38.088,48.4169,38.3411,48.4169,38.6702 C48.4169,39.0246,48.4675,39.2651,48.5688,39.3917 C48.6447,39.5183,48.746,39.6195,48.8725,39.6955 C48.9991,39.7714,49.1763,39.8094,49.4042,39.8094 C49.6573,39.8094,49.9611,39.7335,50.3155,39.5816 C50.6952,39.4297,51.1762,39.1892,51.7585,38.8601 C52.3661,38.531,52.961,38.1892,53.5432,37.8348 C54.1508,37.4804,54.6698,37.2019,55.1001,36.9994 C55.5558,36.7969,55.9355,36.6703,56.2393,36.6197 C56.5684,36.5184,56.9355,36.4804,57.3405,36.5058 C57.7456,36.5311,58.138,36.5944,58.5177,36.6956 C58.8974,36.8475,59.2265,37.0121,59.505,37.1893 C59.8088,37.3665,59.9733,37.4677,59.9986,37.4931 C60.024,37.5184,60.1758,37.4298,60.4543,37.2272 C60.7328,37.0247,61.0619,36.8728,61.4416,36.7716 C61.8213,36.6197,62.0998,36.5437,62.277,36.5437 C62.4542,36.4931,62.7707,36.4804,63.2263,36.5058 C63.682,36.5311,64.0871,36.5817,64.4415,36.6576 C64.7706,36.7336,65.1756,36.8981,65.6566,37.1513 C66.1376,37.4044,66.8338,37.8348,67.7451,38.4424 C68.6565,39.0499,69.2767,39.4044,69.6058,39.5056 C69.9096,39.6575,70.2007,39.7335,70.4792,39.7335 C70.7577,39.7335,70.9981,39.6828,71.2007,39.5816 C71.4032,39.4803,71.5551,39.379,71.6563,39.2778 C71.7576,39.1512,71.8082,38.936,71.8082,38.6322 C71.8082,38.3285,71.7576,38.088,71.6563,37.9108 C71.5551,37.7335,71.4412,37.5817,71.3146,37.4551 C71.188,37.3538,71.0741,37.2779,70.9728,37.2272 C70.8463,37.1766,70.6944,37.1513,70.5172,37.1513 C70.3653,37.1513,70.2387,37.1893,70.1374,37.2652 C70.0615,37.3412,70.0109,37.3791,69.9855,37.3791 Z"/><path stroke="#000" d="M74.2965,53.8437 C81.9656,57.824,91.5773,59.7771,96.3902,65.9062 C100.657,71.4093,102.446,76.7961,102.484,82.2187 C102.486,82.406,102.486,82.5938,102.484,82.7812 C102.478,83.1553,102.475,83.5318,102.453,83.9062 C102.305,86.438,104.08,90.6408,101.953,91.1562 C88.234,91.3437,71.7246,91.6722,59.8278,91.6562 C55.3547,91.662,59.5344,86.6562,59.8278,86.6562 C60.1205,86.6562,60.459,86.4991,61.2652,85.4687 C69.5452,74.8911,71.924,65.5987,74.2965,53.8437 Z"/><path d="M55.25,13.75 C40.5481,14.1528,41.729,28.9085,41.729,28.9085 C41.729,28.9085,36.4773,13.4474,47.2977,7.41479 C47.2977,7.41479,45.3961,6.00705,45.5426,3.9789 L45.5426,3.9789 C45.5426,3.9789,50.5035,4.49372,55.2569,4.5022 C57.4175,4.50598,59.5358,4.40603,61.1247,4.10619 C61.7603,3.98644,62.4021,3.93836,63.0408,3.9525 C67.5064,4.05527,71.7842,7.23564,72.5364,10.3047 C72.5364,10.3047,72.6024,10.3,72.7221,10.3 C74.1336,10.2972,82.9998,10.9176,78.7447,27.2192 C78.7447,27.2192,78.7416,27.2409,78.7344,27.2805 C78.8365,27.2608,78.5,21.825,75.6443,18.4063 C74.14,16.6054,71.3396,15.4665,67.75,14.25 C64.7992,13.25,64.375,13.5,55.25,13.75 Z"/><path fill="#000" stroke="#000" d="M52.0024,28.4085 C52.0024,28.8227,51.6381,29.1585,51.1887,29.1585 C50.7393,29.1585,50.375,28.8227,50.375,28.4085 C50.375,27.9943,50.7393,27.6585,51.1887,27.6585 C51.6381,27.6585,52.0024,27.9943,52.0024,28.4085 Z"/><path fill="#000" stroke="#000" d="M69.5024,28.4085 C69.5024,28.8227,69.1381,29.1585,68.6887,29.1585 C68.2393,29.1585,67.875,28.8227,67.875,28.4085 C67.875,27.9943,68.2393,27.6585,68.6887,27.6585 C69.1381,27.6585,69.5024,27.9943,69.5024,28.4085 Z"/></svg>
