<?xml version="1.0" encoding="utf-8"?>
<!-- Generator: Adobe Illustrator 16.0.0, SVG Export Plug-In . SVG Version: 6.00 Build 0)  -->
<!DOCTYPE svg PUBLIC "-//W3C//DTD SVG 1.1//EN" "http://www.w3.org/Graphics/SVG/1.1/DTD/svg11.dtd">
<svg version="1.1" id="Layer_1" xmlns="http://www.w3.org/2000/svg" xmlns:xlink="http://www.w3.org/1999/xlink" x="0px" y="0px"
	 width="100px" height="83.674px" viewBox="0 0 100 83.674" enable-background="new 0 0 100 83.674" xml:space="preserve">
<g id="Your_Icon">
	<path fill="#010101" d="M87.165,18.368h-3.376h-2.03c0.038,0,0.22,0.154,0.255,0.217c0.326,0.571,0.641,1.26,0.641,1.924v3.41
		c0,2.137-2.016,3.632-4.149,3.632H68.95c-2.136,0-3.644-1.495-3.644-3.632v-5.552h-0.785h-29h-1.847v5.552
		c0,2.137-1.528,3.632-3.668,3.632h-9.547c-2.136,0-4.131-1.495-4.131-3.632v-3.41c0-0.659,0.298-1.347,0.616-1.915
		c0.038-0.066,0.212-0.227,0.252-0.227h-4.259L0,32.533v12.366h42.857v-2.758c0-1.789,1.58-3.365,3.369-3.365h6.665
		c1.793,0,3.231,1.576,3.231,3.365v2.758H100V32.533L87.165,18.368z"/>
	<path fill="#010101" d="M20.457,24.49h9.547c0.566,0,0.608,0,0.608-0.57v-5.552v-0.282V6.948c0-0.941,1.185-1.846,2.124-1.846
		h33.483c0.945,0,2.148,0.905,2.148,1.846v11.139v0.281v5.552c0,0.57,0.021,0.57,0.582,0.57h9.555c0.557,0,1.088,0,1.088-0.57v-3.41
		c0-0.17-0.076-0.381-0.162-0.531c-0.177-0.326-0.551-0.59-0.926-0.59h-3.419h-0.606c-0.703,0-2.028,0-2.028-1.601V3.132
		C72.45,1.471,71.08,0,69.43,0H29.532c-1.657,0-3.001,1.471-3.001,3.132v14.655c0,0.102,0.05,0.581,0,0.581
		c-0.258,1.02-1.343,1.02-2.041,1.02h-0.628h-3.405c-0.384,0-0.741,0.264-0.921,0.59c-0.084,0.15-0.148,0.361-0.148,0.531v3.41
		C19.388,24.49,19.894,24.49,20.457,24.49z"/>
	<path fill="#010101" d="M56.122,50.833v2.842c0,1.792-1.438,3.468-3.231,3.468h-6.665c-1.79,0-3.369-1.676-3.369-3.466v-2.844
		v-2.874H4.082v31.406c0,2.212,1.489,4.309,3.701,4.309H92.9c2.215,0,4.012-1.945,4.012-4.156l0.027-2.807V47.959H56.122V50.833z"/>
	<path fill="#010101" d="M53.062,47.959v-0.053v-3.008v-2.758c0-0.221,0.049-0.305-0.172-0.305h-6.665
		c-0.22,0-0.308,0.084-0.308,0.305v2.758v3.008v0.053v2.874v2.842c0,0.222,0.087,0.407,0.308,0.407h6.665
		c0.221,0,0.172-0.186,0.172-0.405v-2.844V47.959z"/>
</g>
</svg>
